<svg xmlns="http://www.w3.org/2000/svg" width="512" height="512" id="citi"><path fill="#F3F2F2" d="M7.9 256C7.9 119 119 7.9 256 7.9S504.1 119 504.1 256 393 504.1 256 504.1 7.9 393 7.9 256z"></path><path fill="#32357F" fill-rule="evenodd" d="M242.1 199.8h-32v156.4h32V199.8zM271.4 200.1v29.3h26.9v88.2c0 12.2 3.3 21.9 9.8 29.3 6.4 7.6 15 11.4 25.8 11.7 10.7.3 20.2-2.1 28.3-7.1l.5-.3v-.5l7.6-29.7-1.9 1.2c-8.6 5.2-16.5 7.8-23.7 7.8-9.9 0-15-5.9-15-17.6v-83h32.7v-29.3h-32.7v-48.9l-31.5 16.9v32h-26.8zM426.1 199.8h-32.2v156.4h32.2V199.8zM191.8 224.4l-.7-.5c-14.7-17.9-33.2-26.7-55.3-26.7-23.1 0-42.2 7.1-57.4 21.2C62.2 233.3 54 253.2 54 278.3c0 25 8.1 44.8 24.3 59.8 15 14.1 34.3 21 57.4 21 22.1 0 40.7-8.8 55.3-26.5l.7-.5-18.1-21.9-.7.7c-11.7 11.7-24.3 17.7-37.9 17.7-14.1 0-25.8-4.8-35.1-14.3-9.3-9.3-13.8-21.4-13.8-36 0-14.6 4.5-26.7 13.8-36.3 9.3-9.3 20.9-14.1 35.1-14.1 13.5 0 26.1 6 37.9 17.7l.7.7 18.2-21.9z" clip-rule="evenodd"></path><path fill="#EA2230" fill-rule="evenodd" d="M225.9 174.1c12.6-12.9 26.7-22.6 42.7-29.6 15.4-6.7 31.9-9.9 48.9-9.9 16.9 0 33.3 3.3 49.1 9.9 15.7 6.9 29.7 16.7 42.3 29.6l.5.4h36.7l-1.4-2.1c-14.6-20.5-33.4-36.7-56.1-48.5-22.6-11.7-46.2-17.5-71.2-17.5-24.8 0-48.7 5.8-71.3 17.5-22.6 11.8-41.5 28-56 48.5l-1.5 2.1h36.9l.4-.4z" clip-rule="evenodd"></path><path fill="#32357F" fill-rule="evenodd" d="M242.1 199.8h-32v156.4h32V199.8zM271.4 200.1v29.3h26.9v88.2c0 12.2 3.3 21.9 9.8 29.3 6.4 7.6 15 11.4 25.8 11.7 10.7.3 20.2-2.1 28.3-7.1l.5-.3v-.5l7.6-29.7-1.9 1.2c-8.6 5.2-16.5 7.8-23.7 7.8-9.9 0-15-5.9-15-17.6v-83h32.7v-29.3h-32.7v-48.9l-31.5 16.9v32h-26.8zM426.1 199.8h-32.2v156.4h32.2V199.8zM191.8 224.4l-.7-.5c-14.7-17.9-33.2-26.7-55.3-26.7-23.1 0-42.2 7.1-57.4 21.2C62.2 233.3 54 253.2 54 278.3c0 25 8.1 44.8 24.3 59.8 15 14.1 34.3 21 57.4 21 22.1 0 40.7-8.8 55.3-26.5l.7-.5-18.1-21.9-.7.7c-11.7 11.7-24.3 17.7-37.9 17.7-14.1 0-25.8-4.8-35.1-14.3-9.3-9.3-13.8-21.4-13.8-36 0-14.6 4.5-26.7 13.8-36.3 9.3-9.3 20.9-14.1 35.1-14.1 13.5 0 26.1 6 37.9 17.7l.7.7 18.2-21.9z" clip-rule="evenodd"></path><path fill="#E92F30" fill-rule="evenodd" d="M225.9 174.1c12.6-12.9 26.7-22.6 42.7-29.6 15.4-6.7 31.9-9.9 48.9-9.9 16.9 0 33.3 3.3 49.1 9.9 15.7 6.9 29.7 16.7 42.3 29.6l.5.4h36.7l-1.4-2.1c-14.6-20.5-33.4-36.7-56.1-48.5-22.6-11.7-46.2-17.5-71.2-17.5-24.8 0-48.7 5.8-71.3 17.5-22.6 11.8-41.5 28-56 48.5l-1.5 2.1h36.9l.4-.4z" clip-rule="evenodd"></path></svg>